<svg id="visual" viewBox="0 0 960 540" width="960" height="540" xmlns="http://www.w3.org/2000/svg" xmlns:xlink="http://www.w3.org/1999/xlink" version="1.1"><path d="M0 304L32 310.7C64 317.3 128 330.7 192 329.5C256 328.3 320 312.7 384 312.8C448 313 512 329 576 330.8C640 332.7 704 320.3 768 321.2C832 322 896 336 928 343L960 350L960 541L928 541C896 541 832 541 768 541C704 541 640 541 576 541C512 541 448 541 384 541C320 541 256 541 192 541C128 541 64 541 32 541L0 541Z" fill="#d97706"></path><path d="M0 347L32 347.7C64 348.3 128 349.7 192 356.7C256 363.7 320 376.3 384 373.5C448 370.7 512 352.3 576 342.8C640 333.3 704 332.7 768 343.2C832 353.7 896 375.3 928 386.2L960 397L960 541L928 541C896 541 832 541 768 541C704 541 640 541 576 541C512 541 448 541 384 541C320 541 256 541 192 541C128 541 64 541 32 541L0 541Z" fill="#d8462f"></path><path d="M0 383L32 389.8C64 396.7 128 410.3 192 410.8C256 411.3 320 398.7 384 393.3C448 388 512 390 576 392.5C640 395 704 398 768 402.5C832 407 896 413 928 416L960 419L960 541L928 541C896 541 832 541 768 541C704 541 640 541 576 541C512 541 448 541 384 541C320 541 256 541 192 541C128 541 64 541 32 541L0 541Z" fill="#c5074c"></path><path d="M0 465L32 467C64 469 128 473 192 468C256 463 320 449 384 445.2C448 441.3 512 447.7 576 451.8C640 456 704 458 768 454.8C832 451.7 896 443.3 928 439.2L960 435L960 541L928 541C896 541 832 541 768 541C704 541 640 541 576 541C512 541 448 541 384 541C320 541 256 541 192 541C128 541 64 541 32 541L0 541Z" fill="#9f0064"></path><path d="M0 514L32 511C64 508 128 502 192 494.3C256 486.7 320 477.3 384 473.8C448 470.3 512 472.7 576 480.7C640 488.7 704 502.3 768 500.3C832 498.3 896 480.7 928 471.8L960 463L960 541L928 541C896 541 832 541 768 541C704 541 640 541 576 541C512 541 448 541 384 541C320 541 256 541 192 541C128 541 64 541 32 541L0 541Z" fill="#670075"></path></svg>